<svg 
  viewBox="103 145 776 764" 
  version="1.1" 
  xmlns="http://www.w3.org/2000/svg" 
  width="1em" 
  height="1em"
>
  <path
    d="M 691.2 304 s 72 107.2 -32 179.2 c 0 0 -25.6 35.2 6.4 43.2 c 32 9.6 65.6 -3.2 83.2 -30.4 c 16 -28.8 28.8 -48 28.8 -76.8 s 3.2 -48 -8 -68.8 c -16 -20.8 -33.6 -40 -54.4 -56 l -24 9.6 z"
    fill="#d36208" fill-opacity=".5"></path>
  <path
    d="M 579.2 441.6 s 72 107.2 -32 179.2 c 0 0 -25.6 35.2 6.4 43.2 c 32 9.6 65.6 -3.2 83.2 -30.4 c 16 -28.8 28.8 -48 28.8 -76.8 s 3.2 -48 -8 -68.8 c -16 -20.8 -33.6 -40 -54.4 -56 l -24 9.6 z M 435.2 553.6 c 4.8 4.8 8 9.6 11.2 16 c 8 12.8 14.4 25.6 19.2 40 c 6.4 17.6 8 36.8 4.8 56 c -1.6 20.8 -9.6 41.6 -24 57.6 c -9.6 11.2 -20.8 20.8 -32 30.4 c -4.8 3.2 -12.8 6.4 -19.2 9.6 c -11.2 4.8 -22.4 8 -35.2 11.2 c -27.2 4.8 -48 6.4 -68.8 9.6 c -6.4 1.6 4.8 -3.2 0 0 s 4.8 6.4 8 8 c 49.6 9.6 144 24 168 -9.6 s 57.6 -62.4 57.6 -97.6 s 8 -59.2 -9.6 -84.8 s -44.8 -57.6 -44.8 -57.6 l -35.2 11.2 z"
    fill="#d36208" fill-opacity=".5"></path>
  <path
    d="M 532.8 707.2 c -12.8 0 -22.4 -9.6 -22.4 -22.4 c 0 -11.2 8 -20.8 17.6 -22.4 c 57.6 -11.2 100.8 -62.4 102.4 -121.6 c 0 -68.8 -56 -123.2 -124.8 -124.8 c -67.2 0 -113.6 56 -121.6 107.2 c -1.6 12.8 -14.4 20.8 -27.2 19.2 c -12.8 -1.6 -20.8 -14.4 -19.2 -27.2 c 12.8 -70.4 75.2 -145.6 168 -145.6 c 94.4 0 169.6 76.8 169.6 169.6 c 0 89.6 -70.4 152 -139.2 166.4 c 0 1.6 -1.6 1.6 -3.2 1.6 z"
    fill="#ffb022"></path>
  <path
    d="M 380.8 835.2 c -94.4 0 -169.6 -76.8 -169.6 -169.6 c 0 -12.8 9.6 -22.4 22.4 -22.4 s 22.4 9.6 22.4 22.4 c 0 68.8 56 124.8 123.2 124.8 c 68.8 0 124.8 -56 124.8 -123.2 s -56 -124.8 -123.2 -124.8 c -36.8 0 -72 16 -96 44.8 c -8 9.6 -22.4 11.2 -32 3.2 s -11.2 -22.4 -3.2 -32 c 59.2 -72 168 -83.2 240 -22.4 c 72 59.2 83.2 168 22.4 240 c -32 36.8 -80 59.2 -131.2 59.2 z"
    fill="#ffb022"></path>
  <path
    d="M 740.8 316.8 c -12.8 0 -22.4 -11.2 -22.4 -24 c 0 -6.4 3.2 -11.2 6.4 -16 l 99.2 -99.2 c 11.2 -6.4 25.6 -4.8 32 6.4 c 4.8 8 4.8 17.6 0 25.6 l -99.2 99.2 c -3.2 4.8 -9.6 8 -16 8 z M 195.2 867.2 c -12.8 0 -22.4 -11.2 -22.4 -22.4 c 0 -6.4 3.2 -12.8 6.4 -16 l 158.4 -155.2 c 9.6 -8 24 -6.4 32 3.2 c 8 8 6.4 20.8 0 30.4 l -158.4 155.2 c -4.8 3.2 -11.2 4.8 -16 4.8 z"
    fill="#d36208"></path>
  <path
    d="M 651.2 569.6 c -12.8 0 -22.4 -9.6 -20.8 -22.4 c 0 -11.2 8 -20.8 19.2 -20.8 c 64 -6.4 112 -62.4 107.2 -128 c -4.8 -60.8 -57.6 -108.8 -118.4 -107.2 c -59.2 1.6 -108.8 46.4 -116.8 105.6 c -1.6 11.2 -12.8 20.8 -25.6 17.6 s -20.8 -12.8 -17.6 -25.6 c 9.6 -68.8 70.4 -142.4 160 -142.4 c 89.6 -1.6 161.6 70.4 163.2 160 c 1.6 84.8 -64 155.2 -147.2 163.2 h -3.2 z"
    fill="#ffb022"></path>
</svg>